<svg height="512" viewBox="0 0 512 512" width="512" xmlns="http://www.w3.org/2000/svg"><path d="m385.346 244.692a78.983 78.983 0 0 1 -2.6-49.694 159.33 159.33 0 0 0 4.254-63.16c-7.77-58.713-51.5-104.531-108.817-114.011a132.029 132.029 0 0 0 -152.138 107.193 161.184 161.184 0 0 0 3.159 69.806l.452 2a77.45 77.45 0 0 1 -3.308 45.967 213.535 213.535 0 0 0 -14.327 95.979 220.9 220.9 0 0 0 29.959 93.841l18.02 30.487v.889h.526l16.586 28.07a8 8 0 0 0 6.888 3.93h144a8 8 0 0 0 6.888-3.93l35.129-59.449a215.836 215.836 0 0 0 15.332-187.922zm-240.083-51.392-.492-2.172c-.025-.113-.053-.227-.084-.339a145.1 145.1 0 0 1 -2.887-62.989 116.029 116.029 0 0 1 133.77-94.188c50.322 8.324 88.728 48.641 95.569 100.326a143.429 143.429 0 0 1 -3.833 56.85 94.866 94.866 0 0 0 3.123 59.693 201.192 201.192 0 0 1 12.876 56.393 206.156 206.156 0 0 1 -36.14-11.827 204.649 204.649 0 0 1 -59.061-38.861 57.438 57.438 0 0 0 28.33-9.537 8 8 0 0 0 .021-13.3l-10.781-7.238a96 96 0 1 0 -99.356 0l-10.781 7.239a8 8 0 0 0 .022 13.3 57.421 57.421 0 0 0 28.36 9.539 203.9 203.9 0 0 1 -59.148 38.8 200.264 200.264 0 0 1 -36.9 12.016 196.379 196.379 0 0 1 13.336-58.284 93.38 93.38 0 0 0 4.056-55.421zm30.737 114.2a219.09 219.09 0 0 0 65.941-46.654 23.837 23.837 0 0 0 28.128-.008 220.508 220.508 0 0 0 65.931 46.736v12.419a80 80 0 0 1 -160 0zm.447-171.939a94.43 94.43 0 0 0 77.578-55.509l1.975-4.425 1.975 4.427a94.433 94.433 0 0 0 77.578 55.507 80 80 0 1 1 -159.106 0zm3.568-16.549a80.234 80.234 0 0 1 63.194-53.985l-3.794 8.5a78.449 78.449 0 0 1 -59.403 45.485zm88.775-53.985a80.232 80.232 0 0 1 63.2 53.986 78.447 78.447 0 0 1 -59.4-45.48zm27 173.725a41.52 41.52 0 0 1 -15.833 1.274 13.436 13.436 0 0 0 -.15-1.35 8.081 8.081 0 0 0 -.428-1.569q4.175-1.049 8.2-2.458a42.261 42.261 0 0 1 8.212 4.103zm-47.79 2.681c0-.1 0-.209 0-.314a8.034 8.034 0 0 0 .069-1.456c2.616.215 5.26.33 7.931.33s5.315-.115 7.931-.33a8.034 8.034 0 0 0 .069 1.456v.314a7.9 7.9 0 0 1 -3.011 6.18q-.238.188-.464.392a7.885 7.885 0 0 1 -9.047 0q-.226-.207-.468-.4a7.9 7.9 0 0 1 -3.01-6.172zm-23.584-6.785q4.023 1.407 8.2 2.459a8.011 8.011 0 0 0 -.428 1.569 12.894 12.894 0 0 0 -.15 1.351 41.484 41.484 0 0 1 -15.834-1.275 42.4 42.4 0 0 1 8.209-4.104zm131.822 189.826-13.9 23.519h-118.338v16h108.886l-9.454 16h-134.87l-9.454-16h28.892v-16h-38.347l-13.9-23.519a204.766 204.766 0 0 1 -27.787-87c-.379-4.649-.571-9.309-.617-13.97a221.734 221.734 0 0 0 32.651-9.329v5.818a96 96 0 0 0 192 0v-5.777a223.931 223.931 0 0 0 31.97 9.2c-.007 5.044-.189 10.085-.581 15.106a200.611 200.611 0 0 1 -27.151 85.952z"/><circle cx="215.997" cy="143.992" r="8"/><circle cx="295.997" cy="143.992" r="8"/><path d="m219.714 329.769a23.3 23.3 0 0 0 22.177 30.231 23.746 23.746 0 0 0 3.69-.291 23.181 23.181 0 0 0 9.826-3.992 23.3 23.3 0 0 0 35.7-25.935 23.313 23.313 0 0 0 8.23-25.872 23.313 23.313 0 0 0 -21.871-16.083 23.278 23.278 0 0 0 -44.11 0 23.277 23.277 0 0 0 -13.639 41.944zm29.221 9.7-1.109 1.527a7.275 7.275 0 1 1 -11.77-8.554l1.109-1.527a8 8 0 0 0 1.519-4.369 20.011 20.011 0 0 0 14.816 9.854 8 8 0 0 0 -4.565 3.066zm3.065-22.894a4 4 0 1 1 4 4 4 4 0 0 1 -4-4zm24.064 21.28a7.275 7.275 0 0 1 -13.073 3.136l-1.11-1.527a7.985 7.985 0 0 0 -4.259-2.971 19.984 19.984 0 0 0 14.732-8.441 7.984 7.984 0 0 0 1.3 2.86l1.112 1.529a7.237 7.237 0 0 1 1.295 5.414zm-1.112-33.674a7.284 7.284 0 0 1 9.168 4.671 7.273 7.273 0 0 1 -4.67 9.166l-1.8.584a7.952 7.952 0 0 0 -1.9.917 19.5 19.5 0 0 0 -3.482-14.526 7.94 7.94 0 0 0 .885-.23zm-26.816-8.913a7.275 7.275 0 1 1 14.55 0v1.888c0 .2.02.4.036.606a19.774 19.774 0 0 0 -14.665.467 7.972 7.972 0 0 0 .079-1.073zm-21.436 13.585a7.287 7.287 0 0 1 9.166-4.673l1.8.584a7.994 7.994 0 0 0 1.957.371 19.928 19.928 0 0 0 -3.206 15.488 8.006 8.006 0 0 0 -3.245-2.02l-1.8-.584a7.284 7.284 0 0 1 -4.672-9.166z"/><path d="m229.467 191.582a84.417 84.417 0 0 0 53.059 0 8 8 0 1 0 -5.058-15.179 68.323 68.323 0 0 1 -42.941 0 8 8 0 1 0 -5.06 15.179z"/><path d="m319.997 247.993h16v16h-16z"/><path d="m335.997 263.993h16v16h-16z"/><path d="m335.997 231.993h16v16h-16z"/><path d="m351.997 247.993h16v16h-16z"/><path d="m143.997 247.993h16v16h-16z"/><path d="m159.997 231.993h16v16h-16z"/><path d="m175.997 247.993h16v16h-16z"/><path d="m159.997 263.993h16v16h-16z"/><path d="m303.997 335.993h16v16h-16z"/><path d="m191.997 335.993h16v16h-16z"/><path d="m247.997 367.993h16v16h-16z"/></svg>